<?xml version="1.0"?>
<svg xmlns="http://www.w3.org/2000/svg" xmlns:xlink="http://www.w3.org/1999/xlink" xmlns:svgjs="http://svgjs.com/svgjs" version="1.1" width="512" height="512" x="0" y="0" viewBox="0 0 304.849 304.849" style="enable-background:new 0 0 512 512" xml:space="preserve" class=""><g>
<g xmlns="http://www.w3.org/2000/svg">
	<path style="" d="M138.841,168.729H57.726c-8.271,0-15,6.729-15,15v48.668c0,8.271,6.729,15,15,15h81.115   c8.271,0,15-6.729,15-15v-48.668C153.841,175.458,147.112,168.729,138.841,168.729z M143.841,232.397c0,2.757-2.243,5-5,5H57.726   c-2.757,0-5-2.243-5-5v-48.668c0-2.757,2.243-5,5-5h81.115c2.757,0,5,2.243,5,5V232.397z" fill="#ffffff" data-original="#000002" class=""/>
	<path style="" d="M299.114,158.465c-3.645-2.846-8.488-3.789-13.286-2.589l-43.043,10.761v-13.904   c0-9.649-7.851-17.5-17.5-17.5h-16.62c13.658-11.591,22.349-28.864,22.349-48.139c0-34.815-28.323-63.139-63.138-63.139   c-34.814,0-63.139,28.324-63.139,63.139c0,19.274,8.691,36.548,22.349,48.139H80.925c8.948-8.68,14.525-20.816,14.525-34.238   c0-26.315-21.409-47.725-47.725-47.725C21.409,53.27,0,74.679,0,100.994c0,13.566,5.699,25.818,14.817,34.516   c-8.217,1.434-14.489,8.601-14.489,17.222v110.661c0,9.649,7.851,17.5,17.5,17.5h207.457c9.649,0,17.5-7.851,17.5-17.5V249.49   l43.044,10.762c1.364,0.341,2.733,0.509,4.076,0.509c3.38,0,6.602-1.063,9.21-3.099c3.644-2.846,5.733-7.314,5.733-12.262v-74.674   C304.849,165.779,302.759,161.31,299.114,158.465z M119.737,87.094c0-26.544,21.595-48.139,48.139-48.139   c26.543,0,48.138,21.595,48.138,48.139c0,26.544-21.595,48.139-48.138,48.139C141.332,135.232,119.737,113.638,119.737,87.094z    M47.726,68.27c18.044,0,32.725,14.68,32.725,32.725c0,18.045-14.681,32.726-32.725,32.726C29.681,133.72,15,119.039,15,100.994   C15,82.95,29.681,68.27,47.726,68.27z M227.785,263.394c0,1.355-1.145,2.5-2.5,2.5H17.828c-1.355,0-2.5-1.145-2.5-2.5V152.732   c0-1.355,1.145-2.5,2.5-2.5h207.457c1.355,0,2.5,1.145,2.5,2.5V263.394z M289.849,245.4c0,0.149-0.012,0.269-0.027,0.36   c-0.092-0.007-0.21-0.024-0.354-0.061l-46.682-11.67v-51.932l46.682-11.67c0.145-0.036,0.264-0.054,0.354-0.061   c0.016,0.091,0.027,0.21,0.027,0.36V245.4z" fill="#ffffff" data-original="#000002" class=""/>
	<path style="" d="M202.969,172.961h-20.544c-4.143,0-7.5,3.358-7.5,7.5c0,4.142,3.357,7.5,7.5,7.5h20.544   c4.143,0,7.5-3.358,7.5-7.5C210.469,176.319,207.111,172.961,202.969,172.961z" fill="#ffffff" data-original="#000002" class=""/>
</g>
<g xmlns="http://www.w3.org/2000/svg">
</g>
<g xmlns="http://www.w3.org/2000/svg">
</g>
<g xmlns="http://www.w3.org/2000/svg">
</g>
<g xmlns="http://www.w3.org/2000/svg">
</g>
<g xmlns="http://www.w3.org/2000/svg">
</g>
<g xmlns="http://www.w3.org/2000/svg">
</g>
<g xmlns="http://www.w3.org/2000/svg">
</g>
<g xmlns="http://www.w3.org/2000/svg">
</g>
<g xmlns="http://www.w3.org/2000/svg">
</g>
<g xmlns="http://www.w3.org/2000/svg">
</g>
<g xmlns="http://www.w3.org/2000/svg">
</g>
<g xmlns="http://www.w3.org/2000/svg">
</g>
<g xmlns="http://www.w3.org/2000/svg">
</g>
<g xmlns="http://www.w3.org/2000/svg">
</g>
<g xmlns="http://www.w3.org/2000/svg">
</g>
</g></svg>
