<?xml version="1.0"?>
<svg xmlns="http://www.w3.org/2000/svg" xmlns:xlink="http://www.w3.org/1999/xlink" xmlns:svgjs="http://svgjs.com/svgjs" version="1.1" width="512" height="512" x="0" y="0" viewBox="0 0 64 64" style="enable-background:new 0 0 512 512" xml:space="preserve" class=""><g><g xmlns="http://www.w3.org/2000/svg" id="worldwide-global-network-connection-meeting"><path d="m42.49 21.28a15 15 0 1 0 4.51 10.72 14.958 14.958 0 0 0 -4.51-10.72zm2.46 9.72h-5.97a30.925 30.925 0 0 0 -.62-5.43 15.556 15.556 0 0 0 3.36-2.17 12.779 12.779 0 0 1 3.23 7.6zm-4.66-9a13.191 13.191 0 0 1 -2.43 1.59 14.7 14.7 0 0 0 -1.78-3.92 13.01 13.01 0 0 1 4.21 2.33zm-13.27 9a29.8 29.8 0 0 1 .51-4.69 14.824 14.824 0 0 0 8.94 0 29.8 29.8 0 0 1 .51 4.69zm9.96 2a29.8 29.8 0 0 1 -.51 4.69 14.824 14.824 0 0 0 -8.94 0 29.8 29.8 0 0 1 -.51-4.69zm-4.98-14c1.45 0 3.01 2.03 3.99 5.36a12.758 12.758 0 0 1 -7.98 0c.98-3.33 2.54-5.36 3.99-5.36zm-4.08.67a14.7 14.7 0 0 0 -1.78 3.92 13.191 13.191 0 0 1 -2.43-1.59 13.01 13.01 0 0 1 4.21-2.33zm-5.64 3.73a15.556 15.556 0 0 0 3.36 2.17 30.925 30.925 0 0 0 -.62 5.43h-5.97a12.779 12.779 0 0 1 3.23-7.6zm-3.23 9.6h5.97a30.925 30.925 0 0 0 .62 5.43 15.556 15.556 0 0 0 -3.36 2.17 12.779 12.779 0 0 1 -3.23-7.6zm4.67 9a12.791 12.791 0 0 1 2.42-1.59 14.7 14.7 0 0 0 1.78 3.92 12.861 12.861 0 0 1 -4.2-2.33zm8.28 3c-1.45 0-3.01-2.03-3.99-5.36a12.758 12.758 0 0 1 7.98 0c-.98 3.33-2.54 5.36-3.99 5.36zm4.08-.67a14.7 14.7 0 0 0 1.78-3.92 13.191 13.191 0 0 1 2.43 1.59 13.01 13.01 0 0 1 -4.21 2.33zm5.64-3.73a15.556 15.556 0 0 0 -3.36-2.17 30.925 30.925 0 0 0 .62-5.43h5.97a12.779 12.779 0 0 1 -3.23 7.6z" fill="#ffffff" data-original="#000000" style="" class=""/><path d="m27 11h2v2h-2z" fill="#ffffff" data-original="#000000" style="" class=""/><path d="m31 11h2v2h-2z" fill="#ffffff" data-original="#000000" style="" class=""/><path d="m35 11h2v2h-2z" fill="#ffffff" data-original="#000000" style="" class=""/><path d="m27 51h2v2h-2z" fill="#ffffff" data-original="#000000" style="" class=""/><path d="m31 51h2v2h-2z" fill="#ffffff" data-original="#000000" style="" class=""/><path d="m35 51h2v2h-2z" fill="#ffffff" data-original="#000000" style="" class=""/><path d="m11 27h2v2h-2z" fill="#ffffff" data-original="#000000" style="" class=""/><path d="m11 31h2v2h-2z" fill="#ffffff" data-original="#000000" style="" class=""/><path d="m11 35h2v2h-2z" fill="#ffffff" data-original="#000000" style="" class=""/><path d="m51 27h2v2h-2z" fill="#ffffff" data-original="#000000" style="" class=""/><path d="m51 31h2v2h-2z" fill="#ffffff" data-original="#000000" style="" class=""/><path d="m51 35h2v2h-2z" fill="#ffffff" data-original="#000000" style="" class=""/><path d="m13 2a11 11 0 1 0 11 11 11.007 11.007 0 0 0 -11-11zm5 18.48a8.984 8.984 0 0 1 -10 0v-1.48a3.009 3.009 0 0 1 3-3h4a3.009 3.009 0 0 1 3 3zm-7-8.48v-2a2 2 0 0 1 4 0v2a2 2 0 0 1 -4 0zm8.97 6.69a5 5 0 0 0 -3.64-4.49 3.965 3.965 0 0 0 .67-2.2v-2a4 4 0 0 0 -8 0v2a3.965 3.965 0 0 0 .67 2.2 5 5 0 0 0 -3.64 4.49 9 9 0 1 1 13.94 0z" fill="#ffffff" data-original="#000000" style="" class=""/><path d="m51 2a11 11 0 1 0 11 11 11.007 11.007 0 0 0 -11-11zm5 18.48a8.984 8.984 0 0 1 -10 0v-1.48a3.009 3.009 0 0 1 3-3h4a3.009 3.009 0 0 1 3 3zm-7-8.48v-2a2 2 0 0 1 4 0v2a2 2 0 0 1 -4 0zm8.97 6.69a5 5 0 0 0 -3.64-4.49 3.965 3.965 0 0 0 .67-2.2v-2a4 4 0 0 0 -8 0v2a3.965 3.965 0 0 0 .67 2.2 5 5 0 0 0 -3.64 4.49 9 9 0 1 1 13.94 0z" fill="#ffffff" data-original="#000000" style="" class=""/><path d="m13 40a11 11 0 1 0 11 11 11.007 11.007 0 0 0 -11-11zm5 18.48a8.984 8.984 0 0 1 -10 0v-1.48a3.009 3.009 0 0 1 3-3h4a3.009 3.009 0 0 1 3 3zm-7-8.48v-2a2 2 0 0 1 4 0v2a2 2 0 0 1 -4 0zm8.97 6.69a5 5 0 0 0 -3.64-4.49 3.965 3.965 0 0 0 .67-2.2v-2a4 4 0 0 0 -8 0v2a3.965 3.965 0 0 0 .67 2.2 5 5 0 0 0 -3.64 4.49 9 9 0 1 1 13.94 0z" fill="#ffffff" data-original="#000000" style="" class=""/><path d="m51 40a11 11 0 1 0 11 11 11.007 11.007 0 0 0 -11-11zm5 18.48a8.984 8.984 0 0 1 -10 0v-1.48a3.009 3.009 0 0 1 3-3h4a3.009 3.009 0 0 1 3 3zm-7-8.48v-2a2 2 0 0 1 4 0v2a2 2 0 0 1 -4 0zm8.97 6.69a5 5 0 0 0 -3.64-4.49 3.965 3.965 0 0 0 .67-2.2v-2a4 4 0 0 0 -8 0v2a3.965 3.965 0 0 0 .67 2.2 5 5 0 0 0 -3.64 4.49 9 9 0 1 1 13.94 0z" fill="#ffffff" data-original="#000000" style="" class=""/></g></g></svg>
